# xmcd
#
# Track frame offsets: 
#        150
#        12784
#        25100
#        41395
#        52717
#        67477
#        80175
#        101480
#        111995
#        126557
#        143075
#        156427
#
# Disc length: 2358 seconds
#
# Revision: 1
# Processed by: cddbd v1.5.1PL0 Copyright (c) Steve Scherf et al.
# Submitted via: ExactAudioCopy v0.95b2
#
DISCID=a509340c
DTITLE=Paul Joses - Talk To The Water
DYEAR=1995
DGENRE=Blues
TTITLE0=Is That The Way Love Should Be
TTITLE1=Wasted Love
TTITLE2=Goody Goody MAn
TTITLE3=East German Town
TTITLE4=Love Plays Tricks
TTITLE5=Champagne Charlie
TTITLE6=The Night
TTITLE7=Shelly
TTITLE8=End Of The Line
TTITLE9=Talk To The Water
TTITLE10=Special Song
TTITLE11=Love On A Line
EXTD=
EXTT0=
EXTT1=
EXTT2=
EXTT3=
EXTT4=
EXTT5=
EXTT6=
EXTT7=
EXTT8=
EXTT9=
EXTT10=
EXTT11=
PLAYORDER=
